<mxfile host="app.diagrams.net" modified="2022-07-08T05:17:59.280Z" agent="5.0 (Windows NT 10.0; Win64; x64) AppleWebKit/537.36 (KHTML, like Gecko) Chrome/103.0.5060.114 Safari/537.36 Edg/103.0.1264.49" etag="MU4sRAQe6Hpd7H59DYXS" version="20.0.4" type="github">
  <diagram id="_YPycq_J9ru9yePZ1R2g" name="Page-1">
    <mxGraphModel dx="1661" dy="450" grid="1" gridSize="10" guides="1" tooltips="1" connect="1" arrows="1" fold="1" page="1" pageScale="1" pageWidth="827" pageHeight="1169" math="0" shadow="0">
      <root>
        <mxCell id="0" />
        <mxCell id="1" parent="0" />
        <mxCell id="ZzOiCxRfn5U1ua0IVmM7-2" value="研发中台" style="shape=umlLifeline;perimeter=lifelinePerimeter;whiteSpace=wrap;html=1;container=1;collapsible=0;recursiveResize=0;outlineConnect=0;" vertex="1" parent="1">
          <mxGeometry x="90" y="140" width="100" height="600" as="geometry" />
        </mxCell>
        <mxCell id="ZzOiCxRfn5U1ua0IVmM7-7" value="" style="html=1;points=[];perimeter=orthogonalPerimeter;" vertex="1" parent="ZzOiCxRfn5U1ua0IVmM7-2">
          <mxGeometry x="45" y="70" width="10" height="50" as="geometry" />
        </mxCell>
        <mxCell id="ZzOiCxRfn5U1ua0IVmM7-12" value="" style="html=1;points=[];perimeter=orthogonalPerimeter;" vertex="1" parent="ZzOiCxRfn5U1ua0IVmM7-2">
          <mxGeometry x="45" y="150" width="10" height="50" as="geometry" />
        </mxCell>
        <mxCell id="ZzOiCxRfn5U1ua0IVmM7-3" value="本地客户端" style="shape=umlLifeline;perimeter=lifelinePerimeter;whiteSpace=wrap;html=1;container=1;collapsible=0;recursiveResize=0;outlineConnect=0;" vertex="1" parent="1">
          <mxGeometry x="240" y="140" width="100" height="600" as="geometry" />
        </mxCell>
        <mxCell id="ZzOiCxRfn5U1ua0IVmM7-8" value="" style="html=1;points=[];perimeter=orthogonalPerimeter;" vertex="1" parent="ZzOiCxRfn5U1ua0IVmM7-3">
          <mxGeometry x="45" y="70" width="10" height="50" as="geometry" />
        </mxCell>
        <mxCell id="ZzOiCxRfn5U1ua0IVmM7-14" value="" style="html=1;points=[];perimeter=orthogonalPerimeter;" vertex="1" parent="ZzOiCxRfn5U1ua0IVmM7-3">
          <mxGeometry x="45" y="150" width="10" height="130" as="geometry" />
        </mxCell>
        <mxCell id="ZzOiCxRfn5U1ua0IVmM7-4" value="本地客户数据库" style="shape=umlLifeline;perimeter=lifelinePerimeter;whiteSpace=wrap;html=1;container=1;collapsible=0;recursiveResize=0;outlineConnect=0;" vertex="1" parent="1">
          <mxGeometry x="374" y="140" width="100" height="600" as="geometry" />
        </mxCell>
        <mxCell id="ZzOiCxRfn5U1ua0IVmM7-5" value="云管平台" style="shape=umlLifeline;perimeter=lifelinePerimeter;whiteSpace=wrap;html=1;container=1;collapsible=0;recursiveResize=0;outlineConnect=0;" vertex="1" parent="1">
          <mxGeometry x="510" y="140" width="100" height="600" as="geometry" />
        </mxCell>
        <mxCell id="ZzOiCxRfn5U1ua0IVmM7-6" value="云管平台数据库" style="shape=umlLifeline;perimeter=lifelinePerimeter;whiteSpace=wrap;html=1;container=1;collapsible=0;recursiveResize=0;outlineConnect=0;" vertex="1" parent="1">
          <mxGeometry x="650" y="140" width="100" height="600" as="geometry" />
        </mxCell>
        <mxCell id="ZzOiCxRfn5U1ua0IVmM7-10" value="" style="endArrow=open;endFill=1;endSize=12;html=1;rounded=0;" edge="1" parent="1" source="ZzOiCxRfn5U1ua0IVmM7-8" target="ZzOiCxRfn5U1ua0IVmM7-2">
          <mxGeometry width="160" relative="1" as="geometry">
            <mxPoint x="180" y="280" as="sourcePoint" />
            <mxPoint x="340" y="280" as="targetPoint" />
            <Array as="points">
              <mxPoint x="260" y="230" />
              <mxPoint x="160" y="230" />
            </Array>
          </mxGeometry>
        </mxCell>
        <mxCell id="ZzOiCxRfn5U1ua0IVmM7-11" value="获取版本数据" style="edgeLabel;html=1;align=center;verticalAlign=middle;resizable=0;points=[];" vertex="1" connectable="0" parent="ZzOiCxRfn5U1ua0IVmM7-10">
          <mxGeometry x="0.267" y="1" relative="1" as="geometry">
            <mxPoint x="17" as="offset" />
          </mxGeometry>
        </mxCell>
        <mxCell id="ZzOiCxRfn5U1ua0IVmM7-13" value="镜像仓库" style="shape=umlLifeline;perimeter=lifelinePerimeter;whiteSpace=wrap;html=1;container=1;collapsible=0;recursiveResize=0;outlineConnect=0;" vertex="1" parent="1">
          <mxGeometry x="-70" y="140" width="100" height="600" as="geometry" />
        </mxCell>
      </root>
    </mxGraphModel>
  </diagram>
</mxfile>
